<svg width="3086" height="3086" viewBox="0 0 3086 3086" fill="none" xmlns="http://www.w3.org/2000/svg">
<rect width="3086" height="3086" rx="317" fill="#E12A67"/>
<path d="M303.932 2110L1009.5 1002.6H1376.53L1639.14 2110H1267.37L1088.6 1175.04H1234.15L697.85 2110H303.932ZM629.824 1917L778.532 1648.06H1287.94L1329.07 1917H629.824Z" fill="#292929"/>
<path d="M1267.18 2110L1134.29 1002.6H1502.9L1608.89 1937.56H1415.89L1903.14 1002.6H2246.44L2339.77 1937.56H2157.84L2643.52 1002.6H3010.54L2434.69 2110H2034.45L1950.6 1344.31H2064.51L1667.42 2110H1267.18Z" fill="#292929"/>
<path d="M221.932 2046L927.504 938.6H1294.53L1557.14 2046H1185.37L1006.6 1111.04H1152.15L615.85 2046H221.932ZM547.824 1853L696.532 1584.06H1205.94L1247.07 1853H547.824Z" fill="white"/>
<path d="M1185.18 2046L1052.29 938.6H1420.9L1526.89 1873.56H1333.89L1821.14 938.6H2164.44L2257.77 1873.56H2075.84L2561.52 938.6H2928.54L2352.69 2046H1952.45L1868.6 1280.31H1982.51L1585.42 2046H1185.18Z" fill="white"/>
<path d="M221.932 2046L927.504 938.6H1294.53L1557.14 2046H1185.37L1006.6 1111.04H1152.15L615.85 2046H221.932ZM547.824 1853L696.532 1584.06H1205.94L1247.07 1853H547.824Z" fill="white"/>
<path d="M1185.18 2046L1052.29 938.6H1420.9L1526.89 1873.56H1333.89L1821.14 938.6H2164.44L2257.77 1873.56H2075.84L2561.52 938.6H2928.54L2352.69 2046H1952.45L1868.6 1280.31H1982.51L1585.42 2046H1185.18Z" fill="white"/>
</svg>
