<svg width="30" height="35" viewBox="0 0 30 35" fill="none" xmlns="http://www.w3.org/2000/svg">
<g clip-path="url(#clip0_47_389)">
<path d="M15.0068 9.63867C10.7479 9.63867 7.31264 13.1455 7.31264 17.4932C7.31264 21.8408 10.7479 25.3477 15.0068 25.3477C19.2658 25.3477 22.701 21.8408 22.701 17.4932C22.701 13.1455 19.2658 9.63867 15.0068 9.63867ZM15.0068 22.5996C12.2546 22.5996 10.0046 20.3096 10.0046 17.4932C10.0046 14.6768 12.2479 12.3867 15.0068 12.3867C17.7658 12.3867 20.0091 14.6768 20.0091 17.4932C20.0091 20.3096 17.7591 22.5996 15.0068 22.5996ZM24.8104 9.31738C24.8104 10.3359 24.0068 11.1494 23.0158 11.1494C22.018 11.1494 21.2211 10.3291 21.2211 9.31738C21.2211 8.30566 22.0247 7.48535 23.0158 7.48535C24.0068 7.48535 24.8104 8.30566 24.8104 9.31738ZM29.9064 11.1768C29.7926 8.72266 29.2434 6.54883 27.4823 4.75781C25.7278 2.9668 23.5984 2.40625 21.1943 2.2832C18.7167 2.13965 11.2903 2.13965 8.81264 2.2832C6.41532 2.39941 4.28585 2.95996 2.52469 4.75098C0.763533 6.54199 0.221122 8.71582 0.100586 11.1699C-0.0400391 13.6992 -0.0400391 21.2803 0.100586 23.8096C0.214425 26.2637 0.763533 28.4375 2.52469 30.2285C4.28585 32.0195 6.40862 32.5801 8.81264 32.7031C11.2903 32.8467 18.7167 32.8467 21.1943 32.7031C23.5984 32.5869 25.7278 32.0264 27.4823 30.2285C29.2367 28.4375 29.7859 26.2637 29.9064 23.8096C30.047 21.2803 30.047 13.7061 29.9064 11.1768ZM26.7055 26.5234C26.1832 27.8633 25.172 28.8955 23.8528 29.4355C21.8774 30.2354 17.1899 30.0508 15.0068 30.0508C12.8238 30.0508 8.1296 30.2285 6.16085 29.4355C4.84835 28.9023 3.83719 27.8701 3.30818 26.5234C2.52469 24.5068 2.7055 19.7217 2.7055 17.4932C2.7055 15.2646 2.53139 10.4727 3.30818 8.46289C3.8305 7.12305 4.84166 6.09082 6.16085 5.55078C8.1363 4.75098 12.8238 4.93555 15.0068 4.93555C17.1899 4.93555 21.8841 4.75781 23.8528 5.55078C25.1653 6.08398 26.1765 7.11621 26.7055 8.46289C27.489 10.4795 27.3082 15.2646 27.3082 17.4932C27.3082 19.7217 27.489 24.5137 26.7055 26.5234Z" fill="#F8F8F8"/>
</g>
<defs>
<clipPath id="clip0_47_389">
<rect width="30" height="35" fill="white"/>
</clipPath>
</defs>
</svg>
