<svg width="30" height="35" viewBox="0 0 30 35" fill="none" xmlns="http://www.w3.org/2000/svg">
  <g clip-path="url(#clip0_47_391)">
    <path
      d="M30 14.3486C27.0509 14.3551 24.1743 13.4153 21.7768 11.6621V23.8848C21.7761 26.1485 21.0984 28.358 19.8342 30.2178C18.5701 32.0777 16.7798 33.4991 14.7029 34.2922C12.6259 35.0852 10.3612 35.212 8.21179 34.6555C6.06234 34.099 4.13056 32.8859 2.67482 31.1783C1.21907 29.4706 0.308768 27.35 0.0656482 25.1C-0.177472 22.8499 0.258183 20.5777 1.31435 18.5873C2.37051 16.5968 3.99683 14.983 5.97581 13.9617C7.95478 12.9404 10.192 12.5602 12.3884 12.8721V19.0176C11.3841 18.6948 10.3056 18.7043 9.3069 19.0446C8.30818 19.3848 7.44031 20.0385 6.82721 20.9123C6.21411 21.7861 5.88712 22.8353 5.89294 23.9101C5.89876 24.9848 6.23709 26.0303 6.85962 26.8971C7.48214 27.7639 8.35704 28.4077 9.35938 28.7367C10.3617 29.0657 11.4403 29.063 12.441 28.7289C13.4417 28.3949 14.3135 27.7466 14.9318 26.8767C15.5501 26.0067 15.8833 24.9596 15.8839 23.8848V0H21.7768C21.7735 0.508774 21.8161 1.01678 21.904 1.51758C22.109 2.63389 22.5347 3.69581 23.1553 4.63845C23.7759 5.58109 24.5783 6.38464 25.5134 7C26.8445 7.89745 28.4048 8.3753 30 8.37402V14.3486Z"
      fill="#F8F8F8" />
  </g>
  <defs>
    <clipPath id="clip0_47_391">
      <rect width="30" height="35" fill="white" />
    </clipPath>
  </defs>
</svg>