<svg width="581" height="115" viewBox="0 0 581 115" fill="none" xmlns="http://www.w3.org/2000/svg">
<mask id="path-1-outside-1_195_207" maskUnits="userSpaceOnUse" x="-1" y="28" width="580" height="86" fill="black">
<rect fill="white" x="-1" y="28" width="580" height="86"/>
<path d="M2.016 110L22.624 31.6H48.384L68.992 110H53.76L49.504 92.752H21.504L17.248 110H2.016ZM24.976 79.088H46.032L36.512 40.896H34.496L24.976 79.088ZM402.512 111.568C392.656 111.568 384.816 108.88 378.992 103.504C373.168 98.0533 370.256 90.288 370.256 80.208V61.392C370.256 51.312 373.168 43.584 378.992 38.208C384.816 32.7573 392.656 30.032 402.512 30.032C412.368 30.032 420.208 32.7573 426.032 38.208C431.856 43.584 434.768 51.312 434.768 61.392V80.208C434.768 90.288 431.856 98.0533 426.032 103.504C420.208 108.88 412.368 111.568 402.512 111.568ZM402.512 98.352C408.038 98.352 412.331 96.7467 415.392 93.536C418.454 90.3253 419.984 86.032 419.984 80.656V60.944C419.984 55.568 418.454 51.2747 415.392 48.064C412.331 44.8533 408.038 43.248 402.512 43.248C397.062 43.248 392.768 44.8533 389.632 48.064C386.571 51.2747 385.04 55.568 385.04 60.944V80.656C385.04 86.032 386.571 90.3253 389.632 93.536C392.768 96.7467 397.062 98.352 402.512 98.352Z"/>
<path d="M78.3764 110V31.6H93.1604V96.56H129V110H78.3764ZM547.03 111.568C540.982 111.568 535.643 110.485 531.014 108.32C526.385 106.155 522.763 103.056 520.15 99.024C517.537 94.992 516.23 90.1387 516.23 84.464V81.328H530.79V84.464C530.79 89.168 532.246 92.7147 535.158 95.104C538.07 97.4187 542.027 98.576 547.03 98.576C552.107 98.576 555.878 97.568 558.342 95.552C560.881 93.536 562.15 90.96 562.15 87.824C562.15 85.6587 561.515 83.904 560.246 82.56C559.051 81.216 557.259 80.1333 554.87 79.312C552.555 78.416 549.718 77.5947 546.358 76.848L543.782 76.288C538.406 75.0933 533.777 73.6 529.894 71.808C526.086 69.9413 523.137 67.5147 521.046 64.528C519.03 61.5413 518.022 57.6587 518.022 52.88C518.022 48.1013 519.142 44.032 521.382 40.672C523.697 37.2373 526.907 34.624 531.014 32.832C535.195 30.9653 540.086 30.032 545.686 30.032C551.286 30.032 556.251 31.0027 560.582 32.944C564.987 34.8107 568.422 37.648 570.886 41.456C573.425 45.1893 574.694 49.8933 574.694 55.568V58.928H560.134V55.568C560.134 52.5813 559.537 50.192 558.342 48.4C557.222 46.5333 555.579 45.1893 553.414 44.368C551.249 43.472 548.673 43.024 545.686 43.024C541.206 43.024 537.883 43.8827 535.718 45.6C533.627 47.2427 532.582 49.52 532.582 52.432C532.582 54.3733 533.067 56.016 534.038 57.36C535.083 58.704 536.614 59.824 538.63 60.72C540.646 61.616 543.222 62.4 546.358 63.072L548.934 63.632C554.534 64.8267 559.387 66.3573 563.494 68.224C567.675 70.0907 570.923 72.5547 573.238 75.616C575.553 78.6773 576.71 82.5973 576.71 87.376C576.71 92.1547 575.478 96.3733 573.014 100.032C570.625 103.616 567.19 106.453 562.71 108.544C558.305 110.56 553.078 111.568 547.03 111.568Z"/>
<path d="M139.079 110V31.6H153.864V110H139.079ZM442.98 110V97.008H453.284V44.592H442.98V31.6H475.236C485.764 31.6 493.753 34.288 499.204 39.664C504.729 44.9653 507.492 52.88 507.492 63.408V78.192C507.492 88.72 504.729 96.672 499.204 102.048C493.753 107.349 485.764 110 475.236 110H442.98ZM468.068 96.56H475.46C481.433 96.56 485.801 94.992 488.564 91.856C491.327 88.72 492.708 84.3147 492.708 78.64V62.96C492.708 57.2107 491.327 52.8053 488.564 49.744C485.801 46.608 481.433 45.04 475.46 45.04H468.068V96.56Z"/>
<path d="M202.664 110L192.36 31.6H207.032L214.648 99.696H216.664L226.52 31.6H252.056L261.912 99.696H263.928L271.544 31.6H286.216L275.912 110H250.376L240.296 40.336H238.28L228.2 110H202.664Z"/>
<path d="M326.825 111.568C316.969 111.568 309.129 108.88 303.305 103.504C297.481 98.0533 294.569 90.288 294.569 80.208V61.392C294.569 51.312 297.481 43.584 303.305 38.208C309.129 32.7573 316.969 30.032 326.825 30.032C336.681 30.032 344.521 32.7573 350.345 38.208C356.169 43.584 359.081 51.312 359.081 61.392V80.208C359.081 90.288 356.169 98.0533 350.345 103.504C344.521 108.88 336.681 111.568 326.825 111.568ZM326.825 98.352C332.35 98.352 336.643 96.7467 339.705 93.536C342.766 90.3253 344.297 86.032 344.297 80.656V60.944C344.297 55.568 342.766 51.2747 339.705 48.064C336.643 44.8533 332.35 43.248 326.825 43.248C321.374 43.248 317.081 44.8533 313.945 48.064C310.883 51.2747 309.353 55.568 309.353 60.944V80.656C309.353 86.032 310.883 90.3253 313.945 93.536C317.081 96.7467 321.374 98.352 326.825 98.352Z"/>
</mask>
<path d="M2.016 110L22.624 31.6H48.384L68.992 110H53.76L49.504 92.752H21.504L17.248 110H2.016ZM24.976 79.088H46.032L36.512 40.896H34.496L24.976 79.088ZM402.512 111.568C392.656 111.568 384.816 108.88 378.992 103.504C373.168 98.0533 370.256 90.288 370.256 80.208V61.392C370.256 51.312 373.168 43.584 378.992 38.208C384.816 32.7573 392.656 30.032 402.512 30.032C412.368 30.032 420.208 32.7573 426.032 38.208C431.856 43.584 434.768 51.312 434.768 61.392V80.208C434.768 90.288 431.856 98.0533 426.032 103.504C420.208 108.88 412.368 111.568 402.512 111.568ZM402.512 98.352C408.038 98.352 412.331 96.7467 415.392 93.536C418.454 90.3253 419.984 86.032 419.984 80.656V60.944C419.984 55.568 418.454 51.2747 415.392 48.064C412.331 44.8533 408.038 43.248 402.512 43.248C397.062 43.248 392.768 44.8533 389.632 48.064C386.571 51.2747 385.04 55.568 385.04 60.944V80.656C385.04 86.032 386.571 90.3253 389.632 93.536C392.768 96.7467 397.062 98.352 402.512 98.352Z" fill="#0FB59A"/>
<path d="M78.3764 110V31.6H93.1604V96.56H129V110H78.3764ZM547.03 111.568C540.982 111.568 535.643 110.485 531.014 108.32C526.385 106.155 522.763 103.056 520.15 99.024C517.537 94.992 516.23 90.1387 516.23 84.464V81.328H530.79V84.464C530.79 89.168 532.246 92.7147 535.158 95.104C538.07 97.4187 542.027 98.576 547.03 98.576C552.107 98.576 555.878 97.568 558.342 95.552C560.881 93.536 562.15 90.96 562.15 87.824C562.15 85.6587 561.515 83.904 560.246 82.56C559.051 81.216 557.259 80.1333 554.87 79.312C552.555 78.416 549.718 77.5947 546.358 76.848L543.782 76.288C538.406 75.0933 533.777 73.6 529.894 71.808C526.086 69.9413 523.137 67.5147 521.046 64.528C519.03 61.5413 518.022 57.6587 518.022 52.88C518.022 48.1013 519.142 44.032 521.382 40.672C523.697 37.2373 526.907 34.624 531.014 32.832C535.195 30.9653 540.086 30.032 545.686 30.032C551.286 30.032 556.251 31.0027 560.582 32.944C564.987 34.8107 568.422 37.648 570.886 41.456C573.425 45.1893 574.694 49.8933 574.694 55.568V58.928H560.134V55.568C560.134 52.5813 559.537 50.192 558.342 48.4C557.222 46.5333 555.579 45.1893 553.414 44.368C551.249 43.472 548.673 43.024 545.686 43.024C541.206 43.024 537.883 43.8827 535.718 45.6C533.627 47.2427 532.582 49.52 532.582 52.432C532.582 54.3733 533.067 56.016 534.038 57.36C535.083 58.704 536.614 59.824 538.63 60.72C540.646 61.616 543.222 62.4 546.358 63.072L548.934 63.632C554.534 64.8267 559.387 66.3573 563.494 68.224C567.675 70.0907 570.923 72.5547 573.238 75.616C575.553 78.6773 576.71 82.5973 576.71 87.376C576.71 92.1547 575.478 96.3733 573.014 100.032C570.625 103.616 567.19 106.453 562.71 108.544C558.305 110.56 553.078 111.568 547.03 111.568Z" fill="#146EFD"/>
<path d="M139.079 110V31.6H153.864V110H139.079ZM442.98 110V97.008H453.284V44.592H442.98V31.6H475.236C485.764 31.6 493.753 34.288 499.204 39.664C504.729 44.9653 507.492 52.88 507.492 63.408V78.192C507.492 88.72 504.729 96.672 499.204 102.048C493.753 107.349 485.764 110 475.236 110H442.98ZM468.068 96.56H475.46C481.433 96.56 485.801 94.992 488.564 91.856C491.327 88.72 492.708 84.3147 492.708 78.64V62.96C492.708 57.2107 491.327 52.8053 488.564 49.744C485.801 46.608 481.433 45.04 475.46 45.04H468.068V96.56Z" fill="#FFB2D8"/>
<path d="M202.664 110L192.36 31.6H207.032L214.648 99.696H216.664L226.52 31.6H252.056L261.912 99.696H263.928L271.544 31.6H286.216L275.912 110H250.376L240.296 40.336H238.28L228.2 110H202.664Z" fill="#FDD003"/>
<path d="M326.825 111.568C316.969 111.568 309.129 108.88 303.305 103.504C297.481 98.0533 294.569 90.288 294.569 80.208V61.392C294.569 51.312 297.481 43.584 303.305 38.208C309.129 32.7573 316.969 30.032 326.825 30.032C336.681 30.032 344.521 32.7573 350.345 38.208C356.169 43.584 359.081 51.312 359.081 61.392V80.208C359.081 90.288 356.169 98.0533 350.345 103.504C344.521 108.88 336.681 111.568 326.825 111.568ZM326.825 98.352C332.35 98.352 336.643 96.7467 339.705 93.536C342.766 90.3253 344.297 86.032 344.297 80.656V60.944C344.297 55.568 342.766 51.2747 339.705 48.064C336.643 44.8533 332.35 43.248 326.825 43.248C321.374 43.248 317.081 44.8533 313.945 48.064C310.883 51.2747 309.353 55.568 309.353 60.944V80.656C309.353 86.032 310.883 90.3253 313.945 93.536C317.081 96.7467 321.374 98.352 326.825 98.352Z" fill="#F87A01"/>
<path d="M2.016 110L0.0817079 109.492L-0.577654 112H2.016V110ZM22.624 31.6V29.6H21.0818L20.6897 31.0916L22.624 31.6ZM48.384 31.6L50.3183 31.0916L49.9262 29.6H48.384V31.6ZM68.992 110V112H71.5857L70.9263 109.492L68.992 110ZM53.76 110L51.8182 110.479L52.1935 112H53.76V110ZM49.504 92.752L51.4458 92.2729L51.0705 90.752H49.504V92.752ZM21.504 92.752V90.752H19.9375L19.5622 92.2729L21.504 92.752ZM17.248 110V112H18.8145L19.1898 110.479L17.248 110ZM24.976 79.088L23.0354 78.6043L22.4163 81.088H24.976V79.088ZM46.032 79.088V81.088H48.5917L47.9726 78.6043L46.032 79.088ZM36.512 40.896L38.4526 40.4123L38.0747 38.896H36.512V40.896ZM34.496 40.896V38.896H32.9333L32.5554 40.4123L34.496 40.896ZM3.95029 110.508L24.5583 32.1084L20.6897 31.0916L0.0817079 109.492L3.95029 110.508ZM22.624 33.6H48.384V29.6H22.624V33.6ZM46.4497 32.1084L67.0577 110.508L70.9263 109.492L50.3183 31.0916L46.4497 32.1084ZM68.992 108H53.76V112H68.992V108ZM55.7018 109.521L51.4458 92.2729L47.5622 93.2311L51.8182 110.479L55.7018 109.521ZM49.504 90.752H21.504V94.752H49.504V90.752ZM19.5622 92.2729L15.3062 109.521L19.1898 110.479L23.4458 93.2311L19.5622 92.2729ZM17.248 108H2.016V112H17.248V108ZM24.976 81.088H46.032V77.088H24.976V81.088ZM47.9726 78.6043L38.4526 40.4123L34.5714 41.3797L44.0914 79.5717L47.9726 78.6043ZM36.512 38.896H34.496V42.896H36.512V38.896ZM32.5554 40.4123L23.0354 78.6043L26.9166 79.5717L36.4366 41.3797L32.5554 40.4123ZM78.3764 110H76.3764V112H78.3764V110ZM78.3764 31.6V29.6H76.3764V31.6H78.3764ZM93.1604 31.6H95.1604V29.6H93.1604V31.6ZM93.1604 96.56H91.1604V98.56H93.1604V96.56ZM129 96.56H131V94.56H129V96.56ZM129 110V112H131V110H129ZM80.3764 110V31.6H76.3764V110H80.3764ZM78.3764 33.6H93.1604V29.6H78.3764V33.6ZM91.1604 31.6V96.56H95.1604V31.6H91.1604ZM93.1604 98.56H129V94.56H93.1604V98.56ZM127 96.56V110H131V96.56H127ZM129 108H78.3764V112H129V108ZM139.079 110H137.079V112H139.079V110ZM139.079 31.6V29.6H137.079V31.6H139.079ZM153.863 31.6H155.863V29.6H153.863V31.6ZM153.863 110V112H155.863V110H153.863ZM141.079 110V31.6H137.079V110H141.079ZM139.079 33.6H153.863V29.6H139.079V33.6ZM151.863 31.6V110H155.863V31.6H151.863ZM153.863 108H139.079V112H153.863V108ZM202.664 110L200.681 110.261L200.91 112H202.664V110ZM192.36 31.6V29.6H190.08L190.377 31.8606L192.36 31.6ZM207.032 31.6L209.02 31.3777L208.821 29.6H207.032V31.6ZM214.648 99.696L212.66 99.9183L212.859 101.696H214.648V99.696ZM216.664 99.696V101.696H218.395L218.643 99.9825L216.664 99.696ZM226.52 31.6V29.6H224.789L224.541 31.3135L226.52 31.6ZM252.056 31.6L254.035 31.3135L253.787 29.6H252.056V31.6ZM261.912 99.696L259.933 99.9825L260.181 101.696H261.912V99.696ZM263.928 99.696V101.696H265.717L265.916 99.9183L263.928 99.696ZM271.544 31.6V29.6H269.755L269.556 31.3777L271.544 31.6ZM286.216 31.6L288.199 31.8606L288.496 29.6H286.216V31.6ZM275.912 110V112H277.666L277.895 110.261L275.912 110ZM250.376 110L248.397 110.286L248.645 112H250.376V110ZM240.296 40.336L242.275 40.0496L242.027 38.336H240.296V40.336ZM238.28 40.336V38.336H236.549L236.301 40.0496L238.28 40.336ZM228.2 110V112H229.931L230.179 110.286L228.2 110ZM204.647 109.739L194.343 31.3394L190.377 31.8606L200.681 110.261L204.647 109.739ZM192.36 33.6H207.032V29.6H192.36V33.6ZM205.044 31.8223L212.66 99.9183L216.636 99.4737L209.02 31.3777L205.044 31.8223ZM214.648 101.696H216.664V97.696H214.648V101.696ZM218.643 99.9825L228.499 31.8865L224.541 31.3135L214.685 99.4095L218.643 99.9825ZM226.52 33.6H252.056V29.6H226.52V33.6ZM250.077 31.8865L259.933 99.9825L263.891 99.4095L254.035 31.3135L250.077 31.8865ZM261.912 101.696H263.928V97.696H261.912V101.696ZM265.916 99.9183L273.532 31.8223L269.556 31.3777L261.94 99.4737L265.916 99.9183ZM271.544 33.6H286.216V29.6H271.544V33.6ZM284.233 31.3394L273.929 109.739L277.895 110.261L288.199 31.8606L284.233 31.3394ZM275.912 108H250.376V112H275.912V108ZM252.355 109.714L242.275 40.0496L238.317 40.6224L248.397 110.286L252.355 109.714ZM240.296 38.336H238.28V42.336H240.296V38.336ZM236.301 40.0496L226.221 109.714L230.179 110.286L240.259 40.6224L236.301 40.0496ZM228.2 108H202.664V112H228.2V108ZM303.305 103.504L301.938 104.964L301.948 104.974L303.305 103.504ZM303.305 38.208L304.661 39.6776L304.671 39.6682L303.305 38.208ZM350.345 38.208L348.978 39.6683L348.988 39.6776L350.345 38.208ZM350.345 103.504L351.701 104.974L351.711 104.964L350.345 103.504ZM339.705 93.536L338.257 92.1558V92.1559L339.705 93.536ZM339.705 48.064L338.257 49.4441V49.4441L339.705 48.064ZM313.945 48.064L312.514 46.6665L312.506 46.6751L312.497 46.6838L313.945 48.064ZM313.945 93.536L312.497 94.9162L312.506 94.9249L312.514 94.9335L313.945 93.536ZM326.825 109.568C317.344 109.568 310.031 106.991 304.661 102.034L301.948 104.974C308.226 110.769 316.594 113.568 326.825 113.568V109.568ZM304.671 102.044C299.352 97.0656 296.569 89.8898 296.569 80.208H292.569C292.569 90.6862 295.609 99.041 301.938 104.964L304.671 102.044ZM296.569 80.208V61.392H292.569V80.208H296.569ZM296.569 61.392C296.569 51.7088 299.353 44.5779 304.661 39.6776L301.948 36.7384C295.609 42.5901 292.569 50.9152 292.569 61.392H296.569ZM304.671 39.6682C310.042 34.6416 317.351 32.032 326.825 32.032V28.032C316.587 28.032 308.215 30.8731 301.938 36.7478L304.671 39.6682ZM326.825 32.032C336.299 32.032 343.607 34.6416 348.978 39.6682L351.711 36.7478C345.434 30.8731 337.063 28.032 326.825 28.032V32.032ZM348.988 39.6776C354.297 44.5779 357.081 51.7088 357.081 61.392H361.081C361.081 50.9152 358.041 42.5901 351.701 36.7384L348.988 39.6776ZM357.081 61.392V80.208H361.081V61.392H357.081ZM357.081 80.208C357.081 89.8898 354.297 97.0656 348.978 102.044L351.711 104.964C358.04 99.041 361.081 90.6862 361.081 80.208H357.081ZM348.988 102.034C343.618 106.991 336.306 109.568 326.825 109.568V113.568C337.056 113.568 345.423 110.769 351.701 104.974L348.988 102.034ZM326.825 100.352C332.754 100.352 337.625 98.6155 341.152 94.9162L338.257 92.1559C335.662 94.8778 331.946 96.352 326.825 96.352V100.352ZM341.152 94.9162C344.641 91.2577 346.297 86.4306 346.297 80.656H342.297C342.297 85.6334 340.892 89.393 338.257 92.1558L341.152 94.9162ZM346.297 80.656V60.944H342.297V80.656H346.297ZM346.297 60.944C346.297 55.1694 344.641 50.3423 341.152 46.6838L338.257 49.4441C340.892 52.207 342.297 55.9666 342.297 60.944H346.297ZM341.152 46.6838C337.625 42.9845 332.754 41.248 326.825 41.248V45.248C331.946 45.248 335.662 46.7222 338.257 49.4441L341.152 46.6838ZM326.825 41.248C320.959 41.248 316.105 42.9903 312.514 46.6665L315.375 49.4615C318.057 46.7164 321.789 45.248 326.825 45.248V41.248ZM312.497 46.6838C309.009 50.3423 307.353 55.1694 307.353 60.944H311.353C311.353 55.9666 312.758 52.207 315.392 49.4441L312.497 46.6838ZM307.353 60.944V80.656H311.353V60.944H307.353ZM307.353 80.656C307.353 86.4306 309.009 91.2577 312.497 94.9162L315.392 92.1559C312.758 89.393 311.353 85.6334 311.353 80.656H307.353ZM312.514 94.9335C316.105 98.6097 320.959 100.352 326.825 100.352V96.352C321.789 96.352 318.057 94.8836 315.375 92.1385L312.514 94.9335ZM378.992 103.504L377.626 104.964L377.636 104.974L378.992 103.504ZM378.992 38.208L380.349 39.6776L380.359 39.6682L378.992 38.208ZM426.032 38.208L424.666 39.6683L424.676 39.6776L426.032 38.208ZM426.032 103.504L427.389 104.974L427.399 104.964L426.032 103.504ZM415.392 93.536L413.945 92.1558V92.1559L415.392 93.536ZM415.392 48.064L413.945 49.4441V49.4441L415.392 48.064ZM389.632 48.064L388.202 46.6665L388.193 46.6751L388.185 46.6838L389.632 48.064ZM389.632 93.536L388.185 94.9162L388.193 94.9249L388.202 94.9335L389.632 93.536ZM402.512 109.568C393.031 109.568 385.719 106.991 380.349 102.034L377.636 104.974C383.914 110.769 392.281 113.568 402.512 113.568V109.568ZM380.359 102.044C375.04 97.0656 372.256 89.8898 372.256 80.208H368.256C368.256 90.6862 371.297 99.041 377.626 104.964L380.359 102.044ZM372.256 80.208V61.392H368.256V80.208H372.256ZM372.256 61.392C372.256 51.7088 375.04 44.5779 380.349 39.6776L377.636 36.7384C371.296 42.5901 368.256 50.9152 368.256 61.392H372.256ZM380.359 39.6682C385.73 34.6416 393.038 32.032 402.512 32.032V28.032C392.274 28.032 383.903 30.8731 377.626 36.7478L380.359 39.6682ZM402.512 32.032C411.986 32.032 419.295 34.6416 424.666 39.6682L427.399 36.7478C421.122 30.8731 412.75 28.032 402.512 28.032V32.032ZM424.676 39.6776C429.984 44.5779 432.768 51.7088 432.768 61.392H436.768C436.768 50.9152 433.728 42.5901 427.389 36.7384L424.676 39.6776ZM432.768 61.392V80.208H436.768V61.392H432.768ZM432.768 80.208C432.768 89.8898 429.985 97.0656 424.666 102.044L427.399 104.964C433.728 99.041 436.768 90.6862 436.768 80.208H432.768ZM424.676 102.034C419.306 106.991 411.993 109.568 402.512 109.568V113.568C412.743 113.568 421.111 110.769 427.389 104.974L424.676 102.034ZM402.512 100.352C408.441 100.352 413.312 98.6155 416.84 94.9162L413.945 92.1559C411.349 94.8778 407.634 96.352 402.512 96.352V100.352ZM416.84 94.9162C420.328 91.2577 421.984 86.4306 421.984 80.656H417.984C417.984 85.6334 416.579 89.393 413.945 92.1558L416.84 94.9162ZM421.984 80.656V60.944H417.984V80.656H421.984ZM421.984 60.944C421.984 55.1694 420.328 50.3423 416.84 46.6838L413.945 49.4441C416.579 52.207 417.984 55.9666 417.984 60.944H421.984ZM416.84 46.6838C413.312 42.9845 408.441 41.248 402.512 41.248V45.248C407.634 45.248 411.349 46.7222 413.945 49.4441L416.84 46.6838ZM402.512 41.248C396.647 41.248 391.792 42.9903 388.202 46.6665L391.063 49.4615C393.744 46.7164 397.477 45.248 402.512 45.248V41.248ZM388.185 46.6838C384.696 50.3423 383.04 55.1694 383.04 60.944H387.04C387.04 55.9666 388.445 52.207 391.08 49.4441L388.185 46.6838ZM383.04 60.944V80.656H387.04V60.944H383.04ZM383.04 80.656C383.04 86.4306 384.696 91.2577 388.185 94.9162L391.08 92.1559C388.445 89.393 387.04 85.6334 387.04 80.656H383.04ZM388.202 94.9335C391.792 98.6097 396.647 100.352 402.512 100.352V96.352C397.477 96.352 393.744 94.8836 391.063 92.1385L388.202 94.9335ZM442.98 110H440.98V112H442.98V110ZM442.98 97.008V95.008H440.98V97.008H442.98ZM453.284 97.008V99.008H455.284V97.008H453.284ZM453.284 44.592H455.284V42.592H453.284V44.592ZM442.98 44.592H440.98V46.592H442.98V44.592ZM442.98 31.6V29.6H440.98V31.6H442.98ZM499.204 39.664L497.8 41.0879L497.81 41.0976L497.819 41.1072L499.204 39.664ZM499.204 102.048L500.599 103.482L500.599 103.481L499.204 102.048ZM468.068 96.56H466.068V98.56H468.068V96.56ZM488.564 91.856L490.065 93.1781L488.564 91.856ZM488.564 49.744L487.063 51.0661L487.071 51.075L487.079 51.0839L488.564 49.744ZM468.068 45.04V43.04H466.068V45.04H468.068ZM444.98 110V97.008H440.98V110H444.98ZM442.98 99.008H453.284V95.008H442.98V99.008ZM455.284 97.008V44.592H451.284V97.008H455.284ZM453.284 42.592H442.98V46.592H453.284V42.592ZM444.98 44.592V31.6H440.98V44.592H444.98ZM442.98 33.6H475.236V29.6H442.98V33.6ZM475.236 33.6C485.44 33.6 492.845 36.2016 497.8 41.0879L500.609 38.2401C494.661 32.3744 486.089 29.6 475.236 29.6V33.6ZM497.819 41.1072C502.822 45.9072 505.492 53.2147 505.492 63.408H509.492C509.492 52.5452 506.637 44.0235 500.589 38.2208L497.819 41.1072ZM505.492 63.408V78.192H509.492V63.408H505.492ZM505.492 78.192C505.492 88.3831 502.823 95.7364 497.809 100.615L500.599 103.481C506.636 97.6076 509.492 89.0568 509.492 78.192H505.492ZM497.81 100.614C492.856 105.432 485.447 108 475.236 108V112C486.082 112 494.651 109.267 500.599 103.482L497.81 100.614ZM475.236 108H442.98V112H475.236V108ZM468.068 98.56H475.46V94.56H468.068V98.56ZM475.46 98.56C481.754 98.56 486.782 96.9044 490.065 93.1781L487.063 90.5339C484.821 93.0797 481.112 94.56 475.46 94.56V98.56ZM490.065 93.1781C493.249 89.5637 494.708 84.626 494.708 78.64H490.708C490.708 84.0034 489.405 87.8763 487.063 90.5339L490.065 93.1781ZM494.708 78.64V62.96H490.708V78.64H494.708ZM494.708 62.96C494.708 56.911 493.254 51.9559 490.049 48.4041L487.079 51.0839C489.399 53.6548 490.708 57.5103 490.708 62.96H494.708ZM490.065 48.4219C486.782 44.6956 481.754 43.04 475.46 43.04V47.04C481.112 47.04 484.821 48.5203 487.063 51.0661L490.065 48.4219ZM475.46 43.04H468.068V47.04H475.46V43.04ZM466.068 45.04V96.56H470.068V45.04H466.068ZM531.014 108.32L530.167 110.132L531.014 108.32ZM520.15 99.024L521.828 97.9362L520.15 99.024ZM516.23 81.328V79.328H514.23V81.328H516.23ZM530.79 81.328H532.79V79.328H530.79V81.328ZM535.158 95.104L533.889 96.6501L533.901 96.66L533.913 96.6696L535.158 95.104ZM558.342 95.552L557.098 93.9858L557.087 93.9949L557.075 94.0041L558.342 95.552ZM560.246 82.56L558.751 83.8887L558.771 83.9113L558.792 83.9333L560.246 82.56ZM554.87 79.312L554.148 81.1771L554.184 81.1909L554.22 81.2034L554.87 79.312ZM546.358 76.848L546.792 74.8956L546.783 74.8936L546.358 76.848ZM543.782 76.288L543.348 78.2404L543.357 78.2423L543.782 76.288ZM529.894 71.808L529.014 73.6038L529.035 73.6141L529.056 73.6239L529.894 71.808ZM521.046 64.528L519.388 65.6469L519.398 65.661L519.407 65.6749L521.046 64.528ZM521.382 40.672L519.723 39.5543L519.718 39.5626L521.382 40.672ZM531.014 32.832L531.814 34.6651L531.821 34.6617L531.829 34.6583L531.014 32.832ZM560.582 32.944L559.764 34.769L559.783 34.7775L559.802 34.7855L560.582 32.944ZM570.886 41.456L569.207 42.5425L569.219 42.5617L569.232 42.5806L570.886 41.456ZM574.694 58.928V60.928H576.694V58.928H574.694ZM560.134 58.928H558.134V60.928H560.134V58.928ZM558.342 48.4L556.627 49.429L556.651 49.4698L556.678 49.5094L558.342 48.4ZM553.414 44.368L552.649 46.216L552.677 46.2274L552.705 46.238L553.414 44.368ZM535.718 45.6L536.954 47.1726L536.961 47.167L535.718 45.6ZM534.038 57.36L532.417 58.531L532.437 58.5598L532.459 58.5879L534.038 57.36ZM546.358 63.072L546.783 61.1176L546.777 61.1164L546.358 63.072ZM548.934 63.632L548.509 65.5864L548.517 65.588L548.934 63.632ZM563.494 68.224L562.666 70.0448L562.679 70.0503L563.494 68.224ZM573.238 75.616L574.833 74.4098L573.238 75.616ZM573.014 100.032L571.355 98.9148L571.35 98.9226L573.014 100.032ZM562.71 108.544L563.542 110.363L563.549 110.36L563.556 110.356L562.71 108.544ZM547.03 109.568C541.222 109.568 536.181 108.529 531.861 106.508L530.167 110.132C535.105 112.442 540.742 113.568 547.03 113.568V109.568ZM531.861 106.508C527.549 104.491 524.225 101.634 521.828 97.9362L518.472 100.112C521.302 104.478 525.22 107.818 530.167 110.132L531.861 106.508ZM521.828 97.9362C519.46 94.283 518.23 89.8237 518.23 84.464H514.23C514.23 90.4536 515.613 95.701 518.472 100.112L521.828 97.9362ZM518.23 84.464V81.328H514.23V84.464H518.23ZM516.23 83.328H530.79V79.328H516.23V83.328ZM528.79 81.328V84.464H532.79V81.328H528.79ZM528.79 84.464C528.79 89.6042 530.402 93.7885 533.889 96.6501L536.427 93.5579C534.09 91.6408 532.79 88.7318 532.79 84.464H528.79ZM533.913 96.6696C537.284 99.349 541.731 100.576 547.03 100.576V96.576C542.324 96.576 538.856 95.4883 536.402 93.5384L533.913 96.6696ZM547.03 100.576C552.312 100.576 556.629 99.5378 559.608 97.0999L557.075 94.0041C555.127 95.5982 551.903 96.576 547.03 96.576V100.576ZM559.586 97.1182C562.583 94.7377 564.15 91.5936 564.15 87.824H560.15C560.15 90.3264 559.178 92.3343 557.098 93.9858L559.586 97.1182ZM564.15 87.824C564.15 85.2415 563.379 82.9648 561.7 81.1868L558.792 83.9333C559.651 84.8432 560.15 86.0758 560.15 87.824H564.15ZM561.741 81.2313C560.244 79.5469 558.11 78.3109 555.52 77.4206L554.22 81.2034C556.409 81.9558 557.859 82.8851 558.751 83.8887L561.741 81.2313ZM555.592 77.4469C553.155 76.5037 550.215 75.6564 546.792 74.8956L545.924 78.8004C549.22 79.5329 551.955 80.3283 554.148 81.1771L555.592 77.4469ZM546.783 74.8936L544.207 74.3336L543.357 78.2423L545.933 78.8024L546.783 74.8936ZM544.216 74.3356C538.941 73.1636 534.454 71.7101 530.732 69.9921L529.056 73.6239C533.099 75.4899 537.87 77.0231 543.348 78.2404L544.216 74.3356ZM530.774 70.0122C527.22 68.2698 524.552 66.0486 522.684 63.3811L519.407 65.6749C521.721 68.9807 524.952 71.6129 529.014 73.6038L530.774 70.0122ZM522.704 63.4091C520.973 60.845 520.022 57.3878 520.022 52.88H516.022C516.022 57.9296 517.087 62.2377 519.388 65.6469L522.704 63.4091ZM520.022 52.88C520.022 48.4224 521.063 44.7564 523.046 41.7814L519.718 39.5626C517.221 43.3076 516.022 47.7803 516.022 52.88H520.022ZM523.04 41.7897C525.125 38.6961 528.026 36.318 531.814 34.6651L530.214 30.9989C525.789 32.93 522.268 35.7786 519.723 39.5543L523.04 41.7897ZM531.829 34.6583C535.703 32.9287 540.306 32.032 545.686 32.032V28.032C539.866 28.032 534.687 29.002 530.199 31.0057L531.829 34.6583ZM545.686 32.032C551.054 32.032 555.733 32.9619 559.764 34.769L561.4 31.119C556.77 29.0434 551.518 28.032 545.686 28.032V32.032ZM559.802 34.7855C563.86 36.5051 566.972 39.0893 569.207 42.5425L572.565 40.3695C569.871 36.2066 566.115 33.1162 561.362 31.1025L559.802 34.7855ZM569.232 42.5806C571.493 45.9061 572.694 50.1912 572.694 55.568H576.694C576.694 49.5955 575.356 44.4726 572.54 40.3314L569.232 42.5806ZM572.694 55.568V58.928H576.694V55.568H572.694ZM574.694 56.928H560.134V60.928H574.694V56.928ZM562.134 58.928V55.568H558.134V58.928H562.134ZM562.134 55.568C562.134 52.3341 561.489 49.5155 560.006 47.2906L556.678 49.5094C557.584 50.8685 558.134 52.8286 558.134 55.568H562.134ZM560.057 47.371C558.69 45.0934 556.68 43.4678 554.123 42.498L552.705 46.238C554.478 46.9108 555.753 47.9733 556.627 49.429L560.057 47.371ZM554.179 42.52C551.714 41.5002 548.866 41.024 545.686 41.024V45.024C548.479 45.024 550.783 45.4438 552.649 46.216L554.179 42.52ZM545.686 41.024C541.014 41.024 537.154 41.908 534.475 44.033L536.961 47.167C538.612 45.8574 541.397 45.024 545.686 45.024V41.024ZM534.482 44.0274C531.859 46.0887 530.582 48.9732 530.582 52.432H534.582C534.582 50.0667 535.396 48.3966 536.953 47.1726L534.482 44.0274ZM530.582 52.432C530.582 54.7196 531.16 56.7906 532.417 58.531L535.659 56.189C534.975 55.2414 534.582 54.0271 534.582 52.432H530.582ZM532.459 58.5879C533.758 60.2574 535.587 61.5562 537.818 62.5476L539.442 58.8924C537.641 58.0918 536.409 57.1506 535.617 56.1321L532.459 58.5879ZM537.818 62.5476C540.003 63.5187 542.723 64.3384 545.939 65.0276L546.777 61.1164C543.721 60.4616 541.289 59.7132 539.442 58.8924L537.818 62.5476ZM545.933 65.0264L548.509 65.5863L549.359 61.6776L546.783 61.1176L545.933 65.0264ZM548.517 65.588C554.011 66.7602 558.721 68.2513 562.666 70.0447L564.321 66.4033C560.054 64.4634 555.057 62.8932 549.351 61.676L548.517 65.588ZM562.679 70.0503C566.611 71.8059 569.567 74.0776 571.643 76.8222L574.833 74.4098C572.279 71.0317 568.739 68.3754 564.309 66.3977L562.679 70.0503ZM571.643 76.8222C573.636 79.4586 574.71 82.9242 574.71 87.376H578.71C578.71 82.2705 577.469 77.8961 574.833 74.4098L571.643 76.8222ZM574.71 87.376C574.71 91.7914 573.578 95.614 571.355 98.9148L574.673 101.149C577.378 97.1327 578.71 92.518 578.71 87.376H574.71ZM571.35 98.9226C569.192 102.159 566.062 104.773 561.864 106.732L563.556 110.356C568.318 108.134 572.057 105.073 574.678 101.141L571.35 98.9226ZM561.878 106.725C557.79 108.596 552.86 109.568 547.03 109.568V113.568C553.296 113.568 558.819 112.524 563.542 110.363L561.878 106.725Z" fill="black" mask="url(#path-1-outside-1_195_207)"/>
</svg>
