<svg width="40" height="35" viewBox="0 0 40 35" fill="none" xmlns="http://www.w3.org/2000/svg">
<path d="M38.1736 8.4834C37.7361 6.86328 36.4513 5.5918 34.8194 5.16113C31.8611 4.375 19.9999 4.375 19.9999 4.375C19.9999 4.375 8.13883 4.375 5.1805 5.16113C3.54856 5.5918 2.26383 6.86328 1.82633 8.4834C1.03467 11.416 1.03467 17.5273 1.03467 17.5273C1.03467 17.5273 1.03467 23.6387 1.82633 26.5713C2.26383 28.1914 3.54856 29.4082 5.1805 29.8389C8.13883 30.625 19.9999 30.625 19.9999 30.625C19.9999 30.625 31.8611 30.625 34.8194 29.8389C36.4513 29.4082 37.7361 28.1846 38.1736 26.5713C38.9652 23.6387 38.9652 17.5273 38.9652 17.5273C38.9652 17.5273 38.9652 11.416 38.1736 8.4834ZM16.1249 23.0781V11.9766L26.0347 17.5273L16.1249 23.0781Z" fill="#F8F8F8"/>
</svg>
