<svg width="68" height="52" viewBox="0 0 68 52" fill="none" xmlns="http://www.w3.org/2000/svg">
<path d="M0.398438 52V36.8125C0.398438 32.5 1.24219 28.0937 2.92969 23.5937C4.61719 19.0937 6.84375 14.8516 9.60938 10.8672C12.375 6.8828 15.375 3.55468 18.6094 0.88281L31.8281 8.6875C29.2031 12.8125 27.0469 17.125 25.3594 21.625C23.7188 26.125 22.8984 31.1406 22.8984 36.6719V52H0.398438ZM35.9062 52V36.8125C35.9062 32.5 36.75 28.0937 38.4375 23.5937C40.125 19.0937 42.3516 14.8516 45.1172 10.8672C47.8828 6.8828 50.8828 3.55468 54.1172 0.88281L67.3359 8.6875C64.7109 12.8125 62.5547 17.125 60.8672 21.625C59.2266 26.125 58.4063 31.1406 58.4063 36.6719V52H35.9062Z" fill="#E12A67"/>
</svg>
